<?xml version="1.0" encoding="UTF-8" standalone="no"?>
<!-- Created with Inkscape (http://www.inkscape.org/) -->
<svg
   xmlns:dc="http://purl.org/dc/elements/1.1/"
   xmlns:cc="http://web.resource.org/cc/"
   xmlns:rdf="http://www.w3.org/1999/02/22-rdf-syntax-ns#"
   xmlns:svg="http://www.w3.org/2000/svg"
   xmlns="http://www.w3.org/2000/svg"
   xmlns:xlink="http://www.w3.org/1999/xlink"
   xmlns:sodipodi="http://inkscape.sourceforge.net/DTD/sodipodi-0.dtd"
   xmlns:inkscape="http://www.inkscape.org/namespaces/inkscape"
   width="64px"
   height="64px"
   id="svg1307"
   sodipodi:version="0.32"
   inkscape:version="0.43"
   sodipodi:docbase="/home/goomerko/Desktop"
   sodipodi:docname="hermes_logo.svg"
   inkscape:export-filename="/home/goomerko/Desktop/hermes_logo.png"
   inkscape:export-xdpi="90"
   inkscape:export-ydpi="90">
  <defs
     id="defs1309">
    <linearGradient
       id="linearGradient4127">
      <stop
         style="stop-color:#000000;stop-opacity:0.39259258;"
         offset="0"
         id="stop4129" />
      <stop
         style="stop-color:#000000;stop-opacity:0;"
         offset="1"
         id="stop4131" />
    </linearGradient>
    <linearGradient
       id="linearGradient4111">
      <stop
         style="stop-color:#000000;stop-opacity:0.45185184;"
         offset="0"
         id="stop4113" />
      <stop
         style="stop-color:#000000;stop-opacity:0;"
         offset="1"
         id="stop4115" />
    </linearGradient>
    <linearGradient
       id="linearGradient4101">
      <stop
         style="stop-color:#c3bbbb;stop-opacity:1;"
         offset="0"
         id="stop4103" />
      <stop
         style="stop-color:#000000;stop-opacity:0;"
         offset="1"
         id="stop4105" />
    </linearGradient>
    <radialGradient
       inkscape:collect="always"
       xlink:href="#linearGradient4101"
       id="radialGradient4107"
       cx="30.709963"
       cy="56.200645"
       fx="30.709963"
       fy="56.200645"
       r="25.835365"
       gradientTransform="matrix(1,0,0,9.433963e-2,0,50.8987)"
       gradientUnits="userSpaceOnUse" />
    <radialGradient
       inkscape:collect="always"
       xlink:href="#linearGradient4127"
       id="radialGradient2237"
       cx="33.744152"
       cy="55.484375"
       fx="33.744152"
       fy="55.484375"
       r="14.166177"
       gradientTransform="matrix(1,0,0,9.550562e-2,0,50.18531)"
       gradientUnits="userSpaceOnUse" />
  </defs>
  <sodipodi:namedview
     id="base"
     pagecolor="#ffffff"
     bordercolor="#666666"
     borderopacity="1.0"
     inkscape:pageopacity="0.0"
     inkscape:pageshadow="2"
     inkscape:zoom="6.2818324"
     inkscape:cx="64.877048"
     inkscape:cy="8.6620581"
     inkscape:current-layer="layer1"
     showgrid="true"
     inkscape:document-units="px"
     inkscape:grid-bbox="true"
     inkscape:window-width="1390"
     inkscape:window-height="971"
     inkscape:window-x="0"
     inkscape:window-y="25"
     showguides="false" />
  <metadata
     id="metadata1312">
    <rdf:RDF>
      <cc:Work
         rdf:about="">
        <dc:format>image/svg+xml</dc:format>
        <dc:type
           rdf:resource="http://purl.org/dc/dcmitype/StillImage" />
      </cc:Work>
    </rdf:RDF>
  </metadata>
  <g
     id="layer1"
     inkscape:label="Layer 1"
     inkscape:groupmode="layer">
    <rect
       style="opacity:0.97000002;fill:#2c2d0f;fill-opacity:0.72972969;fill-rule:evenodd;stroke:none;stroke-width:0.34200001;stroke-linecap:round;stroke-linejoin:round;stroke-miterlimit:4;stroke-dasharray:none;stroke-dashoffset:1.25;stroke-opacity:1"
       id="rect2187"
       width="24"
       height="0"
       x="41.09277"
       y="-49.205875" />
    <g
       id="g1344"
       transform="translate(0.777035,4)"
       style="fill:#000000;fill-opacity:0.43243247">
      <path
         sodipodi:nodetypes="ccccccccc"
         id="path1346"
         d="M 7.9509456,2 L 56.024506,2 C 57.073193,2.0371609 58.177621,2.9661828 58.167224,3.950946 L 58.222965,11.623185 C 58.185804,12.712744 57.368264,14.081009 56.104795,14.055741 L 8.0869761,14.111483 C 6.9082259,14.111483 5.952441,13.275363 6.055741,12.104795 L 5.9999997,3.9308841 C 6.0743214,2.9231376 6.9847629,2.0412306 7.9509456,2 z "
         style="opacity:0.97000002;fill:#000000;fill-opacity:0.43243247;fill-rule:evenodd;stroke:none;stroke-width:0.34200001;stroke-linecap:round;stroke-linejoin:round;stroke-miterlimit:4;stroke-dashoffset:1.25;stroke-opacity:1" />
      <rect
         y="5.5930581"
         x="18.05574"
         height="0.40694192"
         width="31"
         id="rect1348"
         style="opacity:0.97000002;fill:#000000;fill-opacity:0.43243247;fill-rule:evenodd;stroke:none;stroke-width:0.34200001;stroke-linecap:round;stroke-linejoin:round;stroke-miterlimit:4;stroke-dasharray:none;stroke-dashoffset:1.25;stroke-opacity:1" />
      <rect
         y="7.5930576"
         x="22.05574"
         height="0.40694192"
         width="31"
         id="rect1350"
         style="opacity:0.97000002;fill:#000000;fill-opacity:0.43243247;fill-rule:evenodd;stroke:none;stroke-width:0.34200001;stroke-linecap:round;stroke-linejoin:round;stroke-miterlimit:4;stroke-dasharray:none;stroke-dashoffset:1.25;stroke-opacity:1" />
      <rect
         y="9.5930576"
         x="18.05574"
         height="0.40694192"
         width="31"
         id="rect1352"
         style="opacity:0.97000002;fill:#000000;fill-opacity:0.43243247;fill-rule:evenodd;stroke:none;stroke-width:0.34200001;stroke-linecap:round;stroke-linejoin:round;stroke-miterlimit:4;stroke-dasharray:none;stroke-dashoffset:1.25;stroke-opacity:1" />
      <path
         id="path1354"
         d="M 7.774491,2.0051879 C 6.8962111,2.1602689 6.1242557,2.9824199 6.055741,3.9114379 L 6.118241,12.098938 C 6.014941,13.269506 6.9707409,14.098938 8.149491,14.098938 L 17.055741,14.098938 L 17.055741,2.0051879 L 7.993241,2.0051879 C 7.917758,2.0084089 7.8489215,1.9920459 7.774491,2.0051879 z "
         style="opacity:0.97000002;fill:#000000;fill-opacity:0.43243247;fill-rule:evenodd;stroke:none;stroke-width:0.34200001;stroke-linecap:round;stroke-linejoin:round;stroke-miterlimit:4;stroke-dashoffset:1.25;stroke-opacity:1" />
      <g
         transform="translate(-1.125506,0.337652)"
         id="g1356"
         style="fill:#000000;fill-opacity:0.43243247">
        <g
           id="g1358"
           transform="matrix(1.300842,0,0,1.359161,-25.40232,25.95704)"
           style="fill:#000000;fill-opacity:0.43243247">
          <path
             d="M 30.980239 -13.608256 A 1.6948477 1.6948477 0 1 1  27.590543,-13.608256 A 1.6948477 1.6948477 0 1 1  30.980239 -13.608256 z"
             sodipodi:ry="1.6948477"
             sodipodi:rx="1.6948477"
             sodipodi:cy="-13.608256"
             sodipodi:cx="29.285391"
             id="path1360"
             style="opacity:0.97000002;fill:#000000;fill-opacity:0.43243247;fill-rule:evenodd;stroke:none;stroke-width:0.34200001;stroke-linecap:round;stroke-linejoin:round;stroke-miterlimit:4;stroke-dasharray:none;stroke-dashoffset:1.25;stroke-opacity:1"
             sodipodi:type="arc" />
          <path
             d="M 30.034276 -11.952824 A 0.82771629 1.0642067 0 1 1  28.378844,-11.952824 A 0.82771629 1.0642067 0 1 1  30.034276 -11.952824 z"
             sodipodi:ry="1.0642067"
             sodipodi:rx="0.82771629"
             sodipodi:cy="-11.952824"
             sodipodi:cx="29.20656"
             id="path1362"
             style="opacity:0.97000002;fill:#000000;fill-opacity:0.43243247;fill-rule:evenodd;stroke:none;stroke-width:0.34200001;stroke-linecap:round;stroke-linejoin:round;stroke-miterlimit:4;stroke-dasharray:none;stroke-dashoffset:1.25;stroke-opacity:1"
             sodipodi:type="arc" />
        </g>
        <g
           id="g1364"
           transform="matrix(1.300842,0,0,1.359161,-25.51988,25.32776)"
           style="fill:#000000;fill-opacity:0.43243247">
          <path
             d="M 30.980239 -13.608256 A 1.6948477 1.6948477 0 1 1  27.590543,-13.608256 A 1.6948477 1.6948477 0 1 1  30.980239 -13.608256 z"
             sodipodi:ry="1.6948477"
             sodipodi:rx="1.6948477"
             sodipodi:cy="-13.608256"
             sodipodi:cx="29.285391"
             id="path1366"
             style="opacity:0.97000002;fill:#000000;fill-opacity:0.43243247;fill-rule:evenodd;stroke:none;stroke-width:0.34200001;stroke-linecap:round;stroke-linejoin:round;stroke-miterlimit:4;stroke-dasharray:none;stroke-dashoffset:1.25;stroke-opacity:1"
             sodipodi:type="arc" />
          <path
             d="M 30.034276 -11.952824 A 0.82771629 1.0642067 0 1 1  28.378844,-11.952824 A 0.82771629 1.0642067 0 1 1  30.034276 -11.952824 z"
             sodipodi:ry="1.0642067"
             sodipodi:rx="0.82771629"
             sodipodi:cy="-11.952824"
             sodipodi:cx="29.20656"
             id="path1368"
             style="opacity:0.97000002;fill:#000000;fill-opacity:0.43243247;fill-rule:evenodd;stroke:none;stroke-width:0.34200001;stroke-linecap:round;stroke-linejoin:round;stroke-miterlimit:4;stroke-dasharray:none;stroke-dashoffset:1.25;stroke-opacity:1"
             sodipodi:type="arc" />
        </g>
      </g>
      <path
         sodipodi:nodetypes="cccc"
         id="path1370"
         d="M 21.731395,14.094596 L 17.055741,14 C 19.339529,17.466241 19.35301,17.52702 23.055741,20 C 21.967886,17.101336 21.305713,16.567576 21.731395,14.094596 z "
         style="opacity:0.97000002;fill:#000000;fill-opacity:0.43243247;fill-rule:evenodd;stroke:none;stroke-width:0.34200001;stroke-linecap:round;stroke-linejoin:round;stroke-miterlimit:4;stroke-dashoffset:1.25;stroke-opacity:1" />
    </g>
    <g
       id="g2258">
      <path
         sodipodi:nodetypes="ccccccccc"
         id="rect1306"
         d="M 7.5973926,4.828427 L 55.670953,4.828427 C 56.71964,4.8655879 57.824068,5.7946098 57.813671,6.779373 L 57.869412,14.451612 C 57.832251,15.541171 57.014711,16.909436 55.751242,16.884168 L 7.7334231,16.93991 C 6.5546729,16.93991 5.598888,16.10379 5.702188,14.933222 L 5.6464467,6.7593111 C 5.7207684,5.7515646 6.6312099,4.8696576 7.5973926,4.828427 z "
         style="opacity:0.97000002;fill:#f9fa11;fill-opacity:1;fill-rule:evenodd;stroke:none;stroke-width:0.34200001;stroke-linecap:round;stroke-linejoin:round;stroke-miterlimit:4;stroke-dashoffset:1.25;stroke-opacity:1" />
      <rect
         y="8.4214849"
         x="17.702187"
         height="0.40694192"
         width="31"
         id="rect1308"
         style="opacity:0.97000002;fill:#2c2d0f;fill-opacity:0.72972969;fill-rule:evenodd;stroke:none;stroke-width:0.34200001;stroke-linecap:round;stroke-linejoin:round;stroke-miterlimit:4;stroke-dasharray:none;stroke-dashoffset:1.25;stroke-opacity:1" />
      <rect
         y="10.421485"
         x="21.702187"
         height="0.40694192"
         width="31"
         id="rect1310"
         style="opacity:0.97000002;fill:#2c2d0f;fill-opacity:0.72972969;fill-rule:evenodd;stroke:none;stroke-width:0.34200001;stroke-linecap:round;stroke-linejoin:round;stroke-miterlimit:4;stroke-dasharray:none;stroke-dashoffset:1.25;stroke-opacity:1" />
      <rect
         y="12.421485"
         x="17.702187"
         height="0.40694192"
         width="31"
         id="rect1312"
         style="opacity:0.97000002;fill:#2c2d0f;fill-opacity:0.72972969;fill-rule:evenodd;stroke:none;stroke-width:0.34200001;stroke-linecap:round;stroke-linejoin:round;stroke-miterlimit:4;stroke-dasharray:none;stroke-dashoffset:1.25;stroke-opacity:1" />
      <path
         id="path1314"
         d="M 7.420938,4.8336149 C 6.5426581,4.9886959 5.7707027,5.8108469 5.702188,6.7398649 L 5.764688,14.927365 C 5.661388,16.097933 6.6171879,16.927365 7.795938,16.927365 L 16.702188,16.927365 L 16.702188,4.8336149 L 7.639688,4.8336149 C 7.564205,4.8368359 7.4953685,4.8204729 7.420938,4.8336149 z "
         style="opacity:0.97000002;fill:#fac011;fill-opacity:0.72972969;fill-rule:evenodd;stroke:none;stroke-width:0.34200001;stroke-linecap:round;stroke-linejoin:round;stroke-miterlimit:4;stroke-dashoffset:1.25;stroke-opacity:1" />
      <g
         transform="translate(-1.479059,3.166079)"
         id="g3197">
        <g
           id="g2203"
           transform="matrix(1.300842,0,0,1.359161,-25.40232,25.95704)"
           style="fill:#babba8;fill-opacity:1">
          <path
             d="M 30.980239 -13.608256 A 1.6948477 1.6948477 0 1 1  27.590543,-13.608256 A 1.6948477 1.6948477 0 1 1  30.980239 -13.608256 z"
             sodipodi:ry="1.6948477"
             sodipodi:rx="1.6948477"
             sodipodi:cy="-13.608256"
             sodipodi:cx="29.285391"
             id="path2192"
             style="opacity:0.97000002;fill:#babba8;fill-opacity:1;fill-rule:evenodd;stroke:none;stroke-width:0.34200001;stroke-linecap:round;stroke-linejoin:round;stroke-miterlimit:4;stroke-dasharray:none;stroke-dashoffset:1.25;stroke-opacity:1"
             sodipodi:type="arc" />
          <path
             d="M 30.034276 -11.952824 A 0.82771629 1.0642067 0 1 1  28.378844,-11.952824 A 0.82771629 1.0642067 0 1 1  30.034276 -11.952824 z"
             sodipodi:ry="1.0642067"
             sodipodi:rx="0.82771629"
             sodipodi:cy="-11.952824"
             sodipodi:cx="29.20656"
             id="path2194"
             style="opacity:0.97000002;fill:#babba8;fill-opacity:1;fill-rule:evenodd;stroke:none;stroke-width:0.34200001;stroke-linecap:round;stroke-linejoin:round;stroke-miterlimit:4;stroke-dasharray:none;stroke-dashoffset:1.25;stroke-opacity:1"
             sodipodi:type="arc" />
        </g>
        <g
           id="g3073"
           transform="matrix(1.300842,0,0,1.359161,-25.51988,25.32776)"
           style="fill:#fcffdd;fill-opacity:1">
          <path
             d="M 30.980239 -13.608256 A 1.6948477 1.6948477 0 1 1  27.590543,-13.608256 A 1.6948477 1.6948477 0 1 1  30.980239 -13.608256 z"
             sodipodi:ry="1.6948477"
             sodipodi:rx="1.6948477"
             sodipodi:cy="-13.608256"
             sodipodi:cx="29.285391"
             id="path3075"
             style="opacity:0.97000002;fill:#fcffdd;fill-opacity:1;fill-rule:evenodd;stroke:none;stroke-width:0.34200001;stroke-linecap:round;stroke-linejoin:round;stroke-miterlimit:4;stroke-dasharray:none;stroke-dashoffset:1.25;stroke-opacity:1"
             sodipodi:type="arc" />
          <path
             d="M 30.034276 -11.952824 A 0.82771629 1.0642067 0 1 1  28.378844,-11.952824 A 0.82771629 1.0642067 0 1 1  30.034276 -11.952824 z"
             sodipodi:ry="1.0642067"
             sodipodi:rx="0.82771629"
             sodipodi:cy="-11.952824"
             sodipodi:cx="29.20656"
             id="path3077"
             style="opacity:0.97000002;fill:#fcffdd;fill-opacity:1;fill-rule:evenodd;stroke:none;stroke-width:0.34200001;stroke-linecap:round;stroke-linejoin:round;stroke-miterlimit:4;stroke-dasharray:none;stroke-dashoffset:1.25;stroke-opacity:1"
             sodipodi:type="arc" />
        </g>
      </g>
      <path
         sodipodi:nodetypes="cccc"
         id="rect2193"
         d="M 21.377842,16.923023 L 16.702188,16.828427 C 18.985976,20.294668 18.999457,20.355447 22.702188,22.828427 C 21.614333,19.929763 20.95216,19.396003 21.377842,16.923023 z "
         style="opacity:0.97000002;fill:#f9fa11;fill-opacity:1;fill-rule:evenodd;stroke:none;stroke-width:0.34200001;stroke-linecap:round;stroke-linejoin:round;stroke-miterlimit:4;stroke-dashoffset:1.25;stroke-opacity:1" />
    </g>
    <g
       id="g4147">
      <path
         sodipodi:nodetypes="cccccccccc"
         id="rect1315"
         d="M 16.329015,48.12014 L 16.314567,25.037854 L 52,25.126033 L 51.973776,35.621071 C 51.646361,36.457142 51.646377,36.483925 50.6299,36.693824 L 45.321877,36.709916 L 45.325444,42.409278 L 45.45668,46.675969 C 45.285568,47.814134 45.0905,48.211064 43.171303,48.211825 L 16.329015,48.12014 z "
         style="opacity:0.97000002;fill:#119939;fill-opacity:1;fill-rule:evenodd;stroke:none;stroke-width:0.34200001;stroke-linecap:round;stroke-linejoin:round;stroke-miterlimit:4;stroke-dashoffset:1.25;stroke-opacity:1" />
      <path
         sodipodi:nodetypes="cccccccc"
         id="rect2191"
         d="M 15.02937,52.216253 L 13.849526,48.708407 L 13.881781,24.000645 L 14.663748,24.000323 L 15.445716,24 L 15.460547,48.6687 L 16.314567,51.936258 C 15.830028,52.538114 15.829316,52.533818 15.02937,52.216253 z "
         style="opacity:0.97000002;fill:#938686;fill-opacity:1;fill-rule:evenodd;stroke:none;stroke-width:0.34200001;stroke-linecap:round;stroke-linejoin:round;stroke-miterlimit:4;stroke-dashoffset:1.25;stroke-opacity:1" />
      <rect
         y="28.000004"
         x="21"
         height="0.94596148"
         width="24"
         id="rect2215"
         style="opacity:0.97000002;fill:#9f9f85;fill-opacity:0.72941176;fill-rule:evenodd;stroke:none;stroke-width:0.34200001;stroke-linecap:round;stroke-linejoin:round;stroke-miterlimit:4;stroke-dasharray:none;stroke-dashoffset:1.25;stroke-opacity:1" />
      <rect
         y="32.000004"
         x="21.395515"
         height="0.94596148"
         width="15.604485"
         id="rect3090"
         style="opacity:0.97000002;fill:#9f9f85;fill-opacity:0.72941176;fill-rule:evenodd;stroke:none;stroke-width:0.34200001;stroke-linecap:round;stroke-linejoin:round;stroke-miterlimit:4;stroke-dasharray:none;stroke-dashoffset:1.25;stroke-opacity:1" />
      <rect
         transform="matrix(-5.732228e-3,-0.999984,0.999999,-1.548268e-3,0,0)"
         y="27.297626"
         x="-47.043087"
         height="0.94595939"
         width="12.473118"
         id="rect3092"
         style="opacity:0.97000002;fill:#9f9f85;fill-opacity:0.72941176;fill-rule:evenodd;stroke:none;stroke-width:0.34200001;stroke-linecap:round;stroke-linejoin:round;stroke-miterlimit:4;stroke-dasharray:none;stroke-dashoffset:1.25;stroke-opacity:1" />
      <path
         transform="matrix(1,0,0,0.84974,-2.1701e-2,6.663404)"
         d="M 21.996621 30.42621 A 0.48745975 0.60932469 0 1 1  21.021701,30.42621 A 0.48745975 0.60932469 0 1 1  21.996621 30.42621 z"
         sodipodi:ry="0.60932469"
         sodipodi:rx="0.48745975"
         sodipodi:cy="30.42621"
         sodipodi:cx="21.509161"
         id="path3094"
         style="opacity:0.97000002;fill:#ffff00;fill-opacity:0.72941176;fill-rule:evenodd;stroke:none;stroke-width:0.34200001;stroke-linecap:round;stroke-linejoin:round;stroke-miterlimit:4;stroke-dasharray:none;stroke-dashoffset:1.25;stroke-opacity:1"
         sodipodi:type="arc" />
      <path
         transform="matrix(1,0,0,0.84974,-2.1701e-2,2.663404)"
         d="M 21.996621 30.42621 A 0.48745975 0.60932469 0 1 1  21.021701,30.42621 A 0.48745975 0.60932469 0 1 1  21.996621 30.42621 z"
         sodipodi:ry="0.60932469"
         sodipodi:rx="0.48745975"
         sodipodi:cy="30.42621"
         sodipodi:cx="21.509161"
         id="path3096"
         style="opacity:0.97000002;fill:#ffff00;fill-opacity:0.72941176;fill-rule:evenodd;stroke:none;stroke-width:0.34200001;stroke-linecap:round;stroke-linejoin:round;stroke-miterlimit:4;stroke-dasharray:none;stroke-dashoffset:1.25;stroke-opacity:1"
         sodipodi:type="arc" />
      <path
         transform="matrix(1,0,0,0.84974,3.379e-3,10.66341)"
         d="M 21.996621 30.42621 A 0.48745975 0.60932469 0 1 1  21.021701,30.42621 A 0.48745975 0.60932469 0 1 1  21.996621 30.42621 z"
         sodipodi:ry="0.60932469"
         sodipodi:rx="0.48745975"
         sodipodi:cy="30.42621"
         sodipodi:cx="21.509161"
         id="path3098"
         style="opacity:0.97000002;fill:#ffff00;fill-opacity:0.72941176;fill-rule:evenodd;stroke:none;stroke-width:0.34200001;stroke-linecap:round;stroke-linejoin:round;stroke-miterlimit:4;stroke-dasharray:none;stroke-dashoffset:1.25;stroke-opacity:1"
         sodipodi:type="arc" />
      <path
         transform="matrix(1,0,0,0.84974,3.379e-3,14.62787)"
         d="M 21.996621 30.42621 A 0.48745975 0.60932469 0 1 1  21.021701,30.42621 A 0.48745975 0.60932469 0 1 1  21.996621 30.42621 z"
         sodipodi:ry="0.60932469"
         sodipodi:rx="0.48745975"
         sodipodi:cy="30.42621"
         sodipodi:cx="21.509161"
         id="path3100"
         style="opacity:0.97000002;fill:#ffff00;fill-opacity:0.72941176;fill-rule:evenodd;stroke:none;stroke-width:0.34200001;stroke-linecap:round;stroke-linejoin:round;stroke-miterlimit:4;stroke-dasharray:none;stroke-dashoffset:1.25;stroke-opacity:1"
         sodipodi:type="arc" />
      <path
         transform="matrix(1,0,0,0.84974,10.9783,10.62787)"
         d="M 21.996621 30.42621 A 0.48745975 0.60932469 0 1 1  21.021701,30.42621 A 0.48745975 0.60932469 0 1 1  21.996621 30.42621 z"
         sodipodi:ry="0.60932469"
         sodipodi:rx="0.48745975"
         sodipodi:cy="30.42621"
         sodipodi:cx="21.509161"
         id="path3102"
         style="opacity:0.97000002;fill:#ffff00;fill-opacity:0.72941176;fill-rule:evenodd;stroke:none;stroke-width:0.34200001;stroke-linecap:round;stroke-linejoin:round;stroke-miterlimit:4;stroke-dasharray:none;stroke-dashoffset:1.25;stroke-opacity:1"
         sodipodi:type="arc" />
      <path
         transform="matrix(1,0,0,0.84974,11.00338,14.62787)"
         d="M 21.996621 30.42621 A 0.48745975 0.60932469 0 1 1  21.021701,30.42621 A 0.48745975 0.60932469 0 1 1  21.996621 30.42621 z"
         sodipodi:ry="0.60932469"
         sodipodi:rx="0.48745975"
         sodipodi:cy="30.42621"
         sodipodi:cx="21.509161"
         id="path3104"
         style="opacity:0.97000002;fill:#ffff00;fill-opacity:0.72941176;fill-rule:evenodd;stroke:none;stroke-width:0.34200001;stroke-linecap:round;stroke-linejoin:round;stroke-miterlimit:4;stroke-dasharray:none;stroke-dashoffset:1.25;stroke-opacity:1"
         sodipodi:type="arc" />
      <path
         sodipodi:nodetypes="ccccccc"
         id="rect3144"
         d="M 11.85429,31.732596 L 15.344061,31.76244 L 15.344061,34.303917 L 11.824445,34.293969 C 11.20766,34.171713 10.87937,34.168834 10.849526,33.668548 C 10.849526,33.456758 10.849526,32.609599 10.849526,32.397809 C 10.839578,31.927367 11.128074,31.735474 11.85429,31.732596 z "
         style="opacity:0.97000002;fill:#938686;fill-opacity:1;fill-rule:evenodd;stroke:none;stroke-width:0.34200001;stroke-linecap:round;stroke-linejoin:round;stroke-miterlimit:4;stroke-dashoffset:1.25;stroke-opacity:1" />
    </g>
    <path
       sodipodi:type="arc"
       style="opacity:0.97000002;fill:url(#radialGradient2237);fill-opacity:1.0;fill-rule:evenodd;stroke:none;stroke-width:0.34200001;stroke-linecap:round;stroke-linejoin:round;stroke-miterlimit:4;stroke-dasharray:none;stroke-dashoffset:1.25;stroke-opacity:1"
       id="path4109"
       sodipodi:cx="33.744152"
       sodipodi:cy="55.484375"
       sodipodi:rx="14.166177"
       sodipodi:ry="1.3529495"
       d="M 47.910329 55.484375 A 14.166177 1.3529495 0 1 1  19.577975,55.484375 A 14.166177 1.3529495 0 1 1  47.910329 55.484375 z"
       transform="matrix(1.58829,0,0,3.488747,-23.0955,-138.291)" />
  </g>
</svg>
