/* XPM */
static char *boot[] = {
/* columns rows colors chars-per-pixel */
"32 32 199 2",
"   c #000000",
".  c #0B0404",
"X  c #0C0C0C",
"o  c #110D0D",
"O  c #131313",
"+  c #191212",
"@  c #1C1C1C",
"#  c #280606",
"$  c #2A0909",
"%  c #241818",
"&  c #281919",
"*  c #340B08",
"=  c #3C0000",
"-  c #371E1C",
";  c #3B221F",
":  c #242424",
">  c #2A2A2A",
",  c #3F302F",
"<  c #343434",
"1  c #373838",
"2  c #3B3B3B",
"3  c #480C06",
"4  c #48150D",
"5  c #441E18",
"6  c #530000",
"7  c #570E05",
"8  c #5A0300",
"9  c #57170C",
"0  c #443C3C",
"q  c #4C3B3B",
"w  c #592D24",
"e  c #573932",
"r  c #523C3B",
"t  c #640101",
"y  c #6C0000",
"u  c #6B0C03",
"i  c #64180A",
"p  c #6B1306",
"a  c #740101",
"s  c #7A0000",
"d  c #7B0909",
"f  c #771708",
"g  c #7D1105",
"h  c #7F1212",
"j  c #7F1917",
"k  c #692623",
"l  c #7F2424",
"z  c #444444",
"x  c #4C4343",
"c  c #4C4C4C",
"v  c #524948",
"b  c #545454",
"n  c #5D5D5D",
"m  c #5F6060",
"M  c #625D5D",
"N  c #744A4A",
"B  c #656565",
"V  c #676868",
"C  c #686767",
"Z  c #6B6A6A",
"A  c #746D6C",
"S  c #747474",
"D  c #7C7C7C",
"F  c #850000",
"G  c #830B0C",
"H  c #8B0000",
"J  c #8C0F04",
"K  c #8B1B09",
"L  c #861414",
"P  c #8B1717",
"I  c #881A1A",
"U  c #930000",
"Y  c #910A0A",
"T  c #9C0000",
"R  c #971406",
"E  c #9A1D0A",
"W  c #991F1F",
"Q  c #99230C",
"!  c #8A2626",
"~  c #873D3D",
"^  c #972626",
"/  c #942A2A",
"(  c #9C2222",
")  c #953636",
"_  c #9E3131",
"`  c #9A3C3C",
"'  c #A50101",
"]  c #A40908",
"[  c #AB0101",
"{  c #A51507",
"}  c #A31A09",
"|  c #AD1C0B",
" . c #A21413",
".. c #AD1715",
"X. c #B30303",
"o. c #B40809",
"O. c #BB0101",
"+. c #BB0909",
"@. c #B01616",
"#. c #BF1010",
"$. c #BC1818",
"%. c #A4240E",
"&. c #AA210E",
"*. c #AF2216",
"=. c #AB211D",
"-. c #AF2A11",
";. c #B5250F",
":. c #B42112",
">. c #B72815",
",. c #B6291C",
"<. c #BD2B12",
"1. c #BF371A",
"2. c #A42E2D",
"3. c #AC2E2E",
"4. c #A3322A",
"5. c #A63F3F",
"6. c #AB3333",
"7. c #AD3C3A",
"8. c #B92424",
"9. c #B83423",
"0. c #BE3A2D",
"q. c #B73932",
"w. c #BE3434",
"e. c #BD4338",
"r. c #925454",
"t. c #936363",
"y. c #A34444",
"u. c #A84947",
"i. c #A94949",
"p. c #A45C4D",
"a. c #A55757",
"s. c #A65959",
"d. c #AC5656",
"f. c #A95B5B",
"g. c #BE524C",
"h. c #B45353",
"j. c #B75954",
"k. c #B15E5E",
"l. c #BD5C52",
"z. c #BD5A5A",
"x. c #A67575",
"c. c #A77878",
"v. c #AF7F7F",
"b. c #B26767",
"n. c #B46D6D",
"m. c #B67D7D",
"M. c #C21D1D",
"N. c #C42B12",
"B. c #C63115",
"V. c #CB3015",
"C. c #D23416",
"Z. c #D73E1F",
"A. c #CB3E27",
"S. c #C33232",
"D. c #C83D3D",
"F. c #C5432E",
"G. c #CB513E",
"H. c #D54125",
"J. c #C04B4B",
"K. c #C0554A",
"L. c #CA5A5A",
"P. c #C96B67",
"I. c #E28572",
"U. c #E78E7C",
"Y. c #848484",
"T. c #8B8B8B",
"R. c #998B89",
"E. c #939393",
"W. c #9B9B9B",
"Q. c #A59D9D",
"!. c #B69D9D",
"~. c #BC9A9A",
"^. c #A4A4A4",
"/. c #A8A6A6",
"(. c #ABABAB",
"). c #B5A1A1",
"_. c #B1AAAA",
"`. c #B3B3B3",
"'. c #B6B8B8",
"]. c #BCBCBC",
"[. c #BFC0C0",
"{. c #D68383",
"}. c #C4BDBC",
"|. c #CFBABA",
" X c #EA998A",
".X c #E5ADAD",
"XX c #C4C4C4",
"oX c #C7C8C8",
"OX c #CCCCCC",
"+X c #D3D3D3",
"@X c #D7D8D8",
"#X c #DCDCDC",
"$X c #E3D4D1",
"%X c #EEDEDB",
"&X c #E3E4E4",
"*X c #EBEBEB",
"=X c #F3F3F3",
"-X c #F9F9F9",
";X c None",
/* pixels */
";X;X2 XX+XXX^.T.b ;X;X;X;X;X;X;X;X;X;X;X;X;X;X;X;X;X;X;X;X;X;X;X",
";X;X> /.OXOX'.E.S @ ;X;X;X;X;X  o O O O   ;X;X;X;X;X;X;X;X;X;X;X",
";X;X;Xb `.+XoX(.T.z   ;X+ q q r R.m.s.t.X ;X;X;X;X;X;X;X;X;X;X;X",
";X;X;XX T.XX+X].Q.Y.S R.x.z.7.6.3.( H t .   ;X;X;X;X;X;X;X;X;X;X",
";X;X;X;X1 (.+X+XOX@X$X XP.2.U H U H F l .     ;X;X;X;X;X;X;X;X;X",
";X;X. V /.XX@X&X*X%XU.H.K.2.H Y i.u.G ) M       ;X;X;X;X;X;X;X;X",
";X;XD *X*X&X#X&X$XI.Z.C.G.2.H 5.k.d.) I |.1     ;X;X;X;X;X;X;X;X",
";X: *X-X&X&X#X}.p.B.C.C.G._ F u./ ^ ) L |.W.X     ;X;X;X;X;X;X;X",
"@ `.-X-X*X#X&X].w Q B.C.F.u.F y.y.` ) d ~.@Xb     ;X;X;X;X;X;X;X",
"S -X-X-X=X&X#X@XA i -.V.A.j.G I f.a.j a c.+X(.>     ;X;X;X;X;X;X",
"#X-X=X=X=X*X#X#X'.e K <.V.l.G s d d a y r.XXXXD .     ;X;X;X;X;X",
"`.=X=X=X=X=X#X#X@XD 9 %.N.l.L s a a a a ! !.].'.z     ;X;X;X;X;X",
"z +X=X*X*X=X*X@X@X[.r f ;.K.L s F F H H U 7.).].T.O     ;X;X;X;X",
";XD *X=X*X*X*X#X+X+XY.4 E 9.4.H H U  .] ' [ h._.`.V .     ;X;X;X",
";XO ].*X*X*X*X*X+X+XXXc p &.e. .T ' J.L.X.X.o.h.(.^.>       ;X;X",
";X;Xn #X*X*X*X*X#XOX+XW.5 K >.0.] ' ..{.L.X.O.+.b.(.Y.O     ;X;X",
";X;X@ (.*X&X#X*X*X+XOXoXn 7 } 0.q.] [ w..XD.O.O.+.n./.b     ;X;X",
";X;X;Xb +X&X&X&X&X#XOXOX^.; g | 0.=.[ X.S.M.+.M.S.j.Q.E.>     ;X",
";X;X;X;XW.#X#X#X#X*XOXoXXXZ 3 R :.e...X.$.8.3.^ G ~ W.^.S X     ",
";X;X;X;Xz XX#X#X#X&X#XoXoX(., u { ,.g.6.( P a a t N W.W.W.c     ",
";X;X;X;X;XS #X@X@X#X&XOX[.XXD * J *.7.d a y 6 = $ z E.E.^.W.:   ",
";X;X;X;X;X: '.@X+X+X#X%XXXXX`.0 8 4.j 8 = # & z Z Y.^.`.`.`.c   ",
";X;X;X;X;X;XV OX+X+X+X#XOX[.[.Y.; k # % 2 m Y.E.^.(.`./.E.D O   ",
";X;X;X;X;X;X: ^.+X+XOX@X#XXX].`.m x C Y.W.W.(.(.W.E.T.T.E.b .   ",
";X;X;X;X;X;X;Xz XXOXOXOX#XOX].'.`./.`.(././.W.T.T.T.T.E.Y.>     ",
";X;X;X;X;X;X;X;XT.oXoXoXOX%X[.'.'.`.^.W.T.Y.D Y.T.T.Y.V 2 .     ",
";X;X;X;X;X;X;X;X1 '.oXoXoX+XXX(.W.T.T.T.Y.D D S S b : .         ",
";X;X;X;X;X;X;X;XX S XXXX[.[.E.T.Y.T.T.T.S Y.T.Y.B O           ;X",
";X;X;X;X;X;X;X;X;X< (.XX[.(.Y.T.T.T.D V Z Y.^.(.T.2       ;X;X;X",
";X;X;X;X;X;X;X;X;X;Xb '.'.E.Y.D Z z : O m T.].XX/.Y.1 ;X;X;X;X;X",
";X;X;X;X;X;X;X;X;X;X@ T.E.m z : o       1 E.'.OX].W.B X ;X;X;X;X",
";X;X;X;X;X;X;X;X;X;X;Xc c O .           O S /.oXOX(.T.> ;X;X;X;X"
};
