<?xml version="1.0" encoding="UTF-8" standalone="no"?>
<!-- Created with Inkscape (http://www.inkscape.org/) -->
<svg
   xmlns:a="http://ns.adobe.com/AdobeSVGViewerExtensions/3.0/"
   xmlns:dc="http://purl.org/dc/elements/1.1/"
   xmlns:cc="http://creativecommons.org/ns#"
   xmlns:rdf="http://www.w3.org/1999/02/22-rdf-syntax-ns#"
   xmlns:svg="http://www.w3.org/2000/svg"
   xmlns="http://www.w3.org/2000/svg"
   xmlns:xlink="http://www.w3.org/1999/xlink"
   xmlns:sodipodi="http://sodipodi.sourceforge.net/DTD/sodipodi-0.dtd"
   xmlns:inkscape="http://www.inkscape.org/namespaces/inkscape"
   width="240"
   height="100"
   id="svg6632"
   sodipodi:version="0.32"
   inkscape:version="0.46"
   version="1.0"
   sodipodi:docbase="/home/kwwii/Desktop/Human"
   sodipodi:docname="main_password_bar.svg"
   inkscape:output_extension="org.inkscape.output.svg.inkscape">
  <defs
     id="defs6634">
    <inkscape:perspective
       sodipodi:type="inkscape:persp3d"
       inkscape:vp_x="0 : 50 : 1"
       inkscape:vp_y="0 : 1000 : 0"
       inkscape:vp_z="320 : 50 : 1"
       inkscape:persp3d-origin="160 : 33.333333 : 1"
       id="perspective55" />
    <linearGradient
       inkscape:collect="always"
       xlink:href="#linearGradient4814"
       id="linearGradient3577"
       gradientUnits="userSpaceOnUse"
       gradientTransform="matrix(1.3613112,0,0,1.3621545,-2087.1051,-939.19736)"
       x1="1619.0585"
       y1="735.92786"
       x2="1619.0585"
       y2="708.41107" />
    <linearGradient
       inkscape:collect="always"
       xlink:href="#linearGradient3597"
       id="linearGradient3603"
       x1="645.38281"
       y1="458.65295"
       x2="645.38281"
       y2="521.13379"
       gradientUnits="userSpaceOnUse"
       gradientTransform="matrix(1.3125,0,0,1.3125,-680.0625,-597.21875)" />
    <linearGradient
       id="linearGradient3581">
      <stop
         style="stop-color:#310000;stop-opacity:1;"
         offset="0"
         id="stop3583" />
      <stop
         style="stop-color:#561c1c;stop-opacity:1;"
         offset="1"
         id="stop3585" />
    </linearGradient>
    <linearGradient
       inkscape:collect="always"
       xlink:href="#linearGradient3581"
       id="linearGradient3587"
       x1="639.2876"
       y1="526.08618"
       x2="639.2876"
       y2="458.27664"
       gradientUnits="userSpaceOnUse"
       gradientTransform="matrix(1.3125,0,0,1.3125,-680.0625,-597.21875)" />
    <linearGradient
       id="linearGradient3597">
      <stop
         style="stop-color:#ffffff;stop-opacity:0;"
         offset="0"
         id="stop3599" />
      <stop
         id="stop3815"
         offset="0.5"
         style="stop-color:#ffffff;stop-opacity:1;" />
      <stop
         style="stop-color:#ffffff;stop-opacity:0;"
         offset="1"
         id="stop3601" />
    </linearGradient>
    <linearGradient
       inkscape:collect="always"
       xlink:href="#linearGradient3597"
       id="linearGradient3385"
       gradientUnits="userSpaceOnUse"
       gradientTransform="translate(-680.0625,-597.21875)"
       x1="901.38281"
       y1="575.65295"
       x2="797.38281"
       y2="689.13379" />
    <linearGradient
       inkscape:collect="always"
       id="linearGradient3378">
      <stop
         style="stop-color:#fffad1;stop-opacity:1;"
         offset="0"
         id="stop3380" />
      <stop
         style="stop-color:#fffad1;stop-opacity:0;"
         offset="1"
         id="stop3382" />
    </linearGradient>
    <linearGradient
       id="linearGradient3279">
      <stop
         style="stop-color:#fffacd;stop-opacity:1;"
         offset="0"
         id="stop3281" />
      <stop
         id="stop3283"
         offset="0.39999995"
         style="stop-color:#fff2c0;stop-opacity:0.49803922;" />
      <stop
         style="stop-color:#ffeab3;stop-opacity:0;"
         offset="1"
         id="stop3285" />
    </linearGradient>
    <linearGradient
       id="linearGradient3196">
      <stop
         style="stop-color:#5e1c00;stop-opacity:1;"
         offset="0"
         id="stop3198" />
      <stop
         style="stop-color:#5e1c00;stop-opacity:0;"
         offset="1"
         id="stop3200" />
    </linearGradient>
    <linearGradient
       gradientTransform="translate(-989.327,-286.3725)"
       id="linearGradient4814"
       gradientUnits="userSpaceOnUse"
       x1="1533.3271"
       y1="506.02341"
       x2="1533.3271"
       y2="533.96252">
      <stop
         offset="0"
         style="stop-color:#f2e2d0;stop-opacity:0.87943262;"
         id="stop4816" />
      <stop
         offset="1"
         style="stop-color:#ffffff;stop-opacity:1;"
         id="stop4818" />
      <a:midPointStop
         offset="0"
         style="stop-color:#5C5C5C" />
      <a:midPointStop
         offset="0.5"
         style="stop-color:#5C5C5C" />
      <a:midPointStop
         offset="1"
         style="stop-color:#000000" />
    </linearGradient>
    <linearGradient
       inkscape:collect="always"
       xlink:href="#linearGradient3196"
       id="linearGradient3368"
       gradientUnits="userSpaceOnUse"
       gradientTransform="matrix(0.9913667,0,0,0.1818182,-150.61437,144.6369)"
       x1="263.31934"
       y1="-366.5694"
       x2="263.31934"
       y2="-245.50293" />
    <linearGradient
       inkscape:collect="always"
       xlink:href="#linearGradient3279"
       id="linearGradient3370"
       gradientUnits="userSpaceOnUse"
       gradientTransform="matrix(1,0,0,1.2727273,-153.31934,-278.00054)"
       x1="385.31934"
       y1="177.58093"
       x2="385.31934"
       y2="293.65329" />
    <radialGradient
       inkscape:collect="always"
       xlink:href="#linearGradient3196"
       id="radialGradient3372"
       gradientUnits="userSpaceOnUse"
       gradientTransform="matrix(1.7319559,4.9484456e-8,-3.8461539e-8,1.3461538,-117.11295,158.22574)"
       cx="160"
       cy="-119.76771"
       fx="160"
       fy="-119.76771"
       r="156" />
    <linearGradient
       inkscape:collect="always"
       xlink:href="#linearGradient3279"
       id="linearGradient3374"
       gradientUnits="userSpaceOnUse"
       gradientTransform="matrix(1,0,0,1.2727273,-153.31934,-280.00054)"
       x1="313.31934"
       y1="300.15503"
       x2="313.31934"
       y2="221.57185" />
    <linearGradient
       inkscape:collect="always"
       xlink:href="#linearGradient3378"
       id="linearGradient3384"
       x1="195"
       y1="0"
       x2="195"
       y2="180"
       gradientUnits="userSpaceOnUse" />
    <linearGradient
       inkscape:collect="always"
       xlink:href="#linearGradient4814"
       id="linearGradient3576"
       gradientUnits="userSpaceOnUse"
       gradientTransform="matrix(1.3613112,0,0,1.3621545,-2087.1051,-939.19736)"
       x1="1619.0585"
       y1="735.92786"
       x2="1619.0585"
       y2="708.41107" />
    <linearGradient
       inkscape:collect="always"
       xlink:href="#linearGradient3597"
       id="linearGradient3578"
       gradientUnits="userSpaceOnUse"
       gradientTransform="matrix(1.3125,0,0,1.3125,-680.0625,-597.21875)"
       x1="645.38281"
       y1="458.65295"
       x2="645.38281"
       y2="521.13379" />
    <linearGradient
       inkscape:collect="always"
       xlink:href="#linearGradient3581"
       id="linearGradient3580"
       gradientUnits="userSpaceOnUse"
       gradientTransform="matrix(1.3125,0,0,1.3125,-680.0625,-597.21875)"
       x1="639.2876"
       y1="526.08618"
       x2="639.2876"
       y2="458.27664" />
    <linearGradient
       inkscape:collect="always"
       xlink:href="#linearGradient3597"
       id="linearGradient3582"
       gradientUnits="userSpaceOnUse"
       gradientTransform="translate(-680.0625,-597.21875)"
       x1="901.38281"
       y1="575.65295"
       x2="797.38281"
       y2="689.13379" />
  </defs>
  <sodipodi:namedview
     id="base"
     pagecolor="#ffffff"
     bordercolor="#666666"
     borderopacity="1.0"
     gridtolerance="10000"
     guidetolerance="10"
     objecttolerance="10"
     inkscape:pageopacity="0.0"
     inkscape:pageshadow="2"
     inkscape:zoom="2"
     inkscape:cx="192.22479"
     inkscape:cy="21.044643"
     inkscape:document-units="px"
     inkscape:current-layer="layer2"
     width="302px"
     height="92px"
     inkscape:window-width="910"
     inkscape:window-height="719"
     inkscape:window-x="61"
     inkscape:window-y="28"
     showgrid="false">
    <inkscape:grid
       type="xygrid"
       id="grid2454"
       dotted="true"
       visible="true"
       enabled="true" />
  </sodipodi:namedview>
  <metadata
     id="metadata6637">
    <rdf:RDF>
      <cc:Work
         rdf:about="">
        <dc:format>image/svg+xml</dc:format>
        <dc:type
           rdf:resource="http://purl.org/dc/dcmitype/StillImage" />
      </cc:Work>
    </rdf:RDF>
  </metadata>
  <g
     inkscape:groupmode="layer"
     id="layer2"
     inkscape:label="2"
     style="display:inline">
    <g
       id="g3563"
       transform="matrix(0.8029227,0,0,1.09402,-7.9183035,-4.4113042)">
      <path
         id="path4798"
         d="M 306.37832,7.374624 C 306.76647,8.086118 307.00331,8.910197 307.00331,9.78087 L 307.00331,87.78088 C 307.00331,90.55087 304.77333,92.78088 302.00332,92.78088 L 14.00329,92.78088 C 13.1351,92.78088 12.33837,92.51072 11.6283,92.12463 C 12.471,93.69032 14.09388,94.78088 16.00331,94.78088 L 304.00332,94.78088 C 306.77331,94.78088 309.00332,92.55087 309.00332,89.78088 L 309.00332,11.780871 C 309.00332,9.873926 307.94066,8.218326 306.37832,7.374624 z"
         style="opacity:0.12999998;fill:#310000;fill-opacity:1;stroke:none;stroke-width:0;stroke-miterlimit:4;stroke-dasharray:none;stroke-opacity:1;display:inline" />
      <path
         sodipodi:nodetypes="cccsccccc"
         id="path4802"
         d="M 15.50005,5.781302 C 12.97265,6.036452 11.00004,8.18445 11.00006,10.78131 L 11.00006,63.25007 C 53.02586,50.6243 103.85616,43.15631 159.93757,43.15631 C 215.18697,43.15631 265.31174,50.40065 307.00008,62.68757 L 307.00008,10.78131 C 307.00008,8.011305 304.77008,5.781341 302.00009,5.781302 L 16.00006,5.781302 C 15.82693,5.781302 15.66855,5.764292 15.50005,5.781302 z"
         style="opacity:0.02999998;fill:url(#linearGradient3576);fill-opacity:1;fill-rule:nonzero;stroke:none;stroke-width:1;stroke-linecap:butt;stroke-linejoin:miter;marker:none;marker-start:none;marker-mid:none;marker-end:none;stroke-miterlimit:4;stroke-dasharray:none;stroke-dashoffset:0;stroke-opacity:1;visibility:visible;display:inline;overflow:visible;enable-background:accumulate" />
      <rect
         rx="5.0000005"
         height="88.000008"
         ry="5.0000005"
         y="4.7693419"
         x="10.002476"
         width="298.00003"
         id="rect3593"
         style="opacity:0.29807691;fill:#ffffff;fill-opacity:1;fill-rule:nonzero;stroke:none;stroke-width:0.76190478;stroke-linecap:butt;stroke-linejoin:miter;marker:none;marker-start:none;marker-mid:none;marker-end:none;stroke-miterlimit:4;stroke-dasharray:none;stroke-dashoffset:0;stroke-opacity:0.48469388;visibility:visible;display:inline;overflow:visible;enable-background:accumulate" />
      <rect
         rx="5.0000005"
         height="88.000008"
         ry="5.0000005"
         y="4.7693419"
         x="10.002476"
         width="298.00003"
         id="rect3595"
         style="opacity:0.5;fill:url(#linearGradient3578);fill-opacity:1;fill-rule:nonzero;stroke:none;stroke-width:0.76190478;stroke-linecap:butt;stroke-linejoin:miter;marker:none;marker-start:none;marker-mid:none;marker-end:none;stroke-miterlimit:4;stroke-dasharray:none;stroke-dashoffset:0;stroke-opacity:0.48469388;visibility:visible;display:inline;overflow:visible;enable-background:accumulate" />
      <path
         sodipodi:nodetypes="ccccccccccc"
         id="path3751"
         d="M 12.22558,88.23468 C 11.84153,87.56834 11.60719,86.79655 11.60719,85.98112 L 11.60719,10.930476 C 11.60719,8.336241 13.8136,6.247738 16.55431,6.247738 L 304.50858,6.247738 C 305.36758,6.247738 306.15588,6.500749 306.85844,6.862356 C 306.02466,5.396004 304.41895,4.374643 302.52972,4.374643 L 14.57546,4.374643 C 11.83475,4.374643 9.62834,6.463146 9.62834,9.057381 L 9.62834,84.10802 C 9.62834,85.89398 10.67975,87.44451 12.22558,88.23468 z"
         style="opacity:1;fill:#ffffff;fill-opacity:1;stroke:none;stroke-width:0;stroke-miterlimit:4;stroke-dasharray:none;stroke-opacity:1;display:inline" />
      <rect
         rx="5.0000005"
         height="88.000008"
         ry="5.0000005"
         y="4.7693419"
         x="10.002476"
         width="298.00003"
         id="rect4800"
         style="opacity:1;fill:none;fill-opacity:1;fill-rule:nonzero;stroke:url(#linearGradient3580);stroke-width:0.5;stroke-linecap:butt;stroke-linejoin:miter;marker:none;marker-start:none;marker-mid:none;marker-end:none;stroke-miterlimit:4;stroke-dasharray:none;stroke-dashoffset:0;stroke-opacity:0.48469388;visibility:visible;display:inline;overflow:visible;enable-background:accumulate" />
      <path
         sodipodi:nodetypes="ccccccccccc"
         id="path4806"
         d="M 14.22555,87.23465 C 13.8415,86.5683 13.60717,85.79651 13.60717,84.98108 L 13.60717,12.93045 C 13.60717,10.336215 15.81357,8.247713 18.55428,8.247713 L 303.50856,8.247713 C 304.36756,8.247713 305.15586,8.500723 305.85842,8.86233 C 305.02464,7.395979 303.41893,6.374618 301.5297,6.374618 L 16.57544,6.374618 C 13.83473,6.374618 11.62831,8.46312 11.62831,11.057355 L 11.62831,83.10799 C 11.62831,84.89395 12.67973,86.44448 14.22555,87.23465 z"
         style="opacity:0.05;fill:#310000;fill-opacity:1;fill-rule:nonzero;stroke:none;stroke-width:0;stroke-linecap:butt;stroke-linejoin:miter;marker:none;marker-start:none;marker-mid:none;marker-end:none;stroke-miterlimit:4;stroke-dasharray:none;stroke-dashoffset:0;stroke-opacity:1;visibility:visible;display:inline;overflow:visible;enable-background:accumulate" />
      <path
         sodipodi:nodetypes="ccccccccccc"
         id="path3591"
         d="M 305.26116,5.374598 C 305.64521,6.040941 305.87955,6.81273 305.87955,7.62816 L 305.87955,85.67879 C 305.87955,88.27303 303.67314,90.36153 300.93243,90.36153 L 12.97816,90.36153 C 12.11916,90.36153 11.33086,90.10852 10.6283,89.74691 C 11.46208,91.21327 13.06779,92.23463 14.95702,92.23463 L 302.91128,92.23463 C 305.65199,92.23463 307.8584,90.14612 307.8584,87.55189 L 307.8584,9.501255 C 307.8584,7.715297 306.80699,6.164762 305.26116,5.374598 z"
         style="opacity:0.33000004;fill:#ffffff;fill-opacity:1;stroke:none;stroke-width:0;stroke-miterlimit:4;stroke-dasharray:none;stroke-opacity:1;display:inline" />
      <path
         sodipodi:nodetypes="ccccccccccc"
         id="path3813"
         d="M 304.26117,8.374618 C 304.64522,9.040961 304.87955,9.812751 304.87955,10.628181 L 304.87955,84.67881 C 304.87955,87.27305 302.67315,89.36155 299.93244,89.36155 L 15.97816,89.36155 C 15.11915,89.36155 14.33085,89.10854 13.6283,88.74693 C 14.46208,90.21329 16.06779,91.23465 17.95701,91.23465 L 301.91128,91.23465 C 304.65199,91.23465 306.85841,89.14614 306.85841,86.55191 L 306.85841,12.501276 C 306.85841,10.715318 305.80699,9.164783 304.26117,8.374618 z"
         style="opacity:0.05;fill:#310000;fill-opacity:1;fill-rule:nonzero;stroke:none;stroke-width:0;stroke-linecap:butt;stroke-linejoin:miter;marker:none;marker-start:none;marker-mid:none;marker-end:none;stroke-miterlimit:4;stroke-dasharray:none;stroke-dashoffset:0;stroke-opacity:1;visibility:visible;display:inline;overflow:visible;enable-background:accumulate" />
      <path
         sodipodi:nodetypes="ccccccccccc"
         id="path2597"
         d="M 14.22563,87.23474 C 13.84158,86.56839 13.60724,85.7966 13.60724,84.98117 L 13.60724,12.930529 C 13.60724,10.336294 15.81365,8.247791 18.55436,8.247791 L 300.50864,8.247791 C 301.36765,8.247791 302.15595,8.500802 302.8585,8.862409 C 302.02472,7.396058 300.41901,6.374696 298.52978,6.374696 L 16.57552,6.374696 C 13.83481,6.374696 11.62839,8.463199 11.62839,11.057434 L 11.62839,83.10808 C 11.62839,84.89404 12.67981,86.44457 14.22563,87.23474 z"
         style="opacity:0.33000004;fill:#ffffff;fill-opacity:1;stroke:none;stroke-width:0;stroke-miterlimit:4;stroke-dasharray:none;stroke-opacity:1;display:inline" />
      <path
         id="rect3375"
         d="M 233.4375,25.78125 C 149.80392,25.78124 72.5117,34.78735 10,50 L 10,62.28125 C 53.29976,50.44747 101.98885,43.78125 153.4375,43.78125 C 209.34294,43.78124 261.98128,51.61541 308,65.4375 L 308,28.21875 C 283.89453,26.62162 258.96443,25.78125 233.4375,25.78125 z"
         style="opacity:0.5;fill:url(#linearGradient3582);fill-opacity:1;fill-rule:nonzero;stroke:none;stroke-width:0.76190478;stroke-linecap:butt;stroke-linejoin:miter;marker:none;marker-start:none;marker-mid:none;marker-end:none;stroke-miterlimit:4;stroke-dasharray:none;stroke-dashoffset:0;stroke-opacity:0.48469388;visibility:visible;display:inline;overflow:visible;enable-background:accumulate" />
    </g>
  </g>
</svg>
